<?xml version="1.0" encoding="UTF-8" standalone="no"?>
<!-- Created with Inkscape (http://www.inkscape.org/) -->

<svg
   width="68mm"
   height="120mm"
   viewBox="0 0 68 120"
   version="1.1"
   id="svg319"
   inkscape:version="1.4.2 (ebf0e940d0, 2025-05-08)"
   sodipodi:docname="blues-brkr.svg"
   xml:space="preserve"
   inkscape:export-filename="template_v3.png"
   inkscape:export-xdpi="409.68"
   inkscape:export-ydpi="409.68"
   xmlns:inkscape="http://www.inkscape.org/namespaces/inkscape"
   xmlns:sodipodi="http://sodipodi.sourceforge.net/DTD/sodipodi-0.dtd"
   xmlns="http://www.w3.org/2000/svg"
   xmlns:svg="http://www.w3.org/2000/svg"><sodipodi:namedview
     id="namedview321"
     pagecolor="#505050"
     bordercolor="#ffffff"
     borderopacity="1"
     inkscape:showpageshadow="0"
     inkscape:pageopacity="0"
     inkscape:pagecheckerboard="1"
     inkscape:deskcolor="#505050"
     inkscape:document-units="mm"
     showgrid="true"
     showborder="true"
     showguides="true"
     inkscape:zoom="4"
     inkscape:cx="70"
     inkscape:cy="220.625"
     inkscape:current-layer="layer1"
     guidecolor="#ff031d"
     guideopacity="0.6"
     inkscape:lockguides="false"><sodipodi:guide
       position="33.999999,119"
       orientation="-1,0"
       id="guide444"
       inkscape:locked="false"
       inkscape:label=""
       inkscape:color="rgb(224,27,36)" /><sodipodi:guide
       position="0,59.499999"
       orientation="0,1"
       id="guide454"
       inkscape:locked="false"
       inkscape:label=""
       inkscape:color="rgb(224,27,36)" /><sodipodi:guide
       position="12,119"
       orientation="-1,0"
       id="guide2188"
       inkscape:locked="false"
       inkscape:label=""
       inkscape:color="rgb(224,27,36)" /><sodipodi:guide
       position="55.999999,119"
       orientation="-1,0"
       id="guide2190"
       inkscape:locked="false"
       inkscape:label=""
       inkscape:color="rgb(224,27,36)" /><sodipodi:guide
       position="0,83"
       orientation="0,1"
       id="guide2244"
       inkscape:locked="false"
       inkscape:label=""
       inkscape:color="rgb(224,27,36)" /><inkscape:grid
       type="xygrid"
       id="grid2270"
       units="mm"
       spacingx="0.99999998"
       spacingy="0.99999998"
       dotted="true"
       color="#2fb675"
       opacity="0.14901961"
       empcolor="#559253"
       empopacity="0.30196078"
       visible="true"
       originx="0"
       originy="0" /><sodipodi:guide
       position="0,11"
       orientation="0,1"
       id="guide2296"
       inkscape:locked="false"
       inkscape:label=""
       inkscape:color="rgb(224,27,36)" /><sodipodi:guide
       position="0,96"
       orientation="0,1"
       id="guide2"
       inkscape:locked="false"
       inkscape:label=""
       inkscape:color="rgb(255,3,29)" /><sodipodi:guide
       position="0,70"
       orientation="0,1"
       id="guide3"
       inkscape:locked="false"
       inkscape:label=""
       inkscape:color="rgb(255,3,29)" /><sodipodi:guide
       position="-13,109"
       orientation="0,-1"
       id="guide1"
       inkscape:locked="false" /></sodipodi:namedview><defs
     id="defs316" /><g
     inkscape:label="Layer 1"
     inkscape:groupmode="layer"
     id="layer1"><g
       stroke="#000000"
       fill="none"
       fill-rule="evenodd"
       stroke-linejoin="bevel"
       stroke-width="1"
       stroke-linecap="square"
       id="DrawingContent"
       transform="matrix(0.1,0,0,0.1,-71.000001,-87.923079)"
       style="display:none"><path
         style="font-style:normal;font-weight:400;font-size:35.2778px;font-family:'Source Code Pro';fill:none;stroke:#000000;stroke-width:1;stroke-linecap:round;stroke-linejoin:bevel;stroke-dasharray:4, 2;stroke-dashoffset:0;stroke-opacity:1"
         d="m 1350,2129.6173 35,-0.042 c 8.284,0 15,-0.586 15,-1.308 v -18.685 -29.871 -1209.65667 -30.015 H 700 v 30.015 1209.65667 29.871 18.685 c 0,0.722 6.716,1.308 15,1.308 l 35,0.057 600,-0.015"
         id="path3204" /><path
         style="font-style:normal;font-weight:400;font-size:35.2778px;font-family:'Source Code Pro';fill:none;stroke:#000000;stroke-width:1;stroke-linecap:round;stroke-linejoin:bevel;stroke-dasharray:4, 2;stroke-dashoffset:0;stroke-opacity:1"
         d="m 700,2079.7113 h 700 V 870.05463 H 700 V 2079.7113"
         id="path3202" /><path
         style="font-style:normal;font-weight:400;font-size:35.2778px;font-family:'Source Code Pro';fill:none;stroke:#000000;stroke-width:1;stroke-linecap:round;stroke-linejoin:bevel;stroke-dasharray:4, 2;stroke-dashoffset:0;stroke-opacity:1"
         d="m 700,870.05463 h 700 v -30.015 H 700 v 30.015"
         id="path3200" /><path
         style="font-style:normal;font-weight:400;font-size:35.2778px;font-family:'Source Code Pro';fill:none;stroke:#000000;stroke-width:1;stroke-linecap:round;stroke-linejoin:bevel;stroke-dasharray:4, 2;stroke-dashoffset:0;stroke-opacity:1"
         d="m 700,2109.5823 h 700 v -29.871 H 700 v 29.871"
         id="path3198" /><path
         style="font-style:normal;font-weight:400;font-size:35.2778px;font-family:'Source Code Pro';fill:none;stroke:#000000;stroke-width:1;stroke-linecap:round;stroke-linejoin:bevel;stroke-dasharray:4, 2;stroke-dashoffset:0;stroke-opacity:1"
         d="m 750,2129.6033 600,-0.028 h 35 c 8.284,0 15,-0.586 15,-1.308 v -18.685 H 700 v 18.685 c 0,0.722 6.716,1.308 15,1.308 l 35,0.028"
         id="path3196" /><path
         style="font-style:normal;font-weight:400;font-size:35.2778px;font-family:'Source Code Pro';fill:none;stroke:#000000;stroke-width:1;stroke-linecap:round;stroke-linejoin:bevel;stroke-dasharray:4, 2;stroke-dashoffset:0;stroke-opacity:1"
         d="m 1350,2129.6173 v 0.072 l -600,-0.057 600,-0.015"
         id="path3166" /><path
         style="font-style:normal;font-weight:400;font-size:35.2778px;font-family:'Source Code Pro';fill:none;stroke:#000000;stroke-width:1;stroke-linecap:round;stroke-linejoin:bevel;stroke-dasharray:4, 2;stroke-dashoffset:0;stroke-opacity:1"
         d="m 700,870.05463 v -30.015"
         id="path3150" /><path
         style="font-style:normal;font-weight:400;font-size:35.2778px;font-family:'Source Code Pro';fill:none;stroke:#000000;stroke-width:1;stroke-linecap:round;stroke-linejoin:bevel;stroke-dasharray:4, 2;stroke-dashoffset:0;stroke-opacity:1"
         d="m 1400,870.05463 v -30.015"
         id="path3134" /><path
         style="font-style:normal;font-weight:400;font-size:35.2778px;font-family:'Source Code Pro';fill:none;stroke:#000000;stroke-width:1;stroke-linecap:round;stroke-linejoin:bevel;stroke-dasharray:4, 2;stroke-dashoffset:0;stroke-opacity:1"
         d="M 700,2079.7113 V 870.05463"
         id="path3132" /><path
         style="font-style:normal;font-weight:400;font-size:35.2778px;font-family:'Source Code Pro';fill:none;stroke:#000000;stroke-width:1;stroke-linecap:round;stroke-linejoin:bevel;stroke-dasharray:4, 2;stroke-dashoffset:0;stroke-opacity:1"
         d="M 1400,2079.7113 V 870.05463"
         id="path3130" /><path
         style="font-style:normal;font-weight:400;font-size:35.2778px;font-family:'Source Code Pro';fill:none;stroke:#000000;stroke-width:1;stroke-linecap:round;stroke-linejoin:bevel;stroke-dasharray:4, 2;stroke-dashoffset:0;stroke-opacity:1"
         d="m 700,2109.5823 v -29.871"
         id="path3086" /><path
         style="font-style:normal;font-weight:400;font-size:35.2778px;font-family:'Source Code Pro';fill:none;stroke:#000000;stroke-width:1;stroke-linecap:round;stroke-linejoin:bevel;stroke-dasharray:4, 2;stroke-dashoffset:0;stroke-opacity:1"
         d="m 1400,2109.5823 v -29.871"
         id="path3084" /><path
         style="font-style:normal;font-weight:400;font-size:35.2778px;font-family:'Source Code Pro';fill:none;stroke:#000000;stroke-width:1;stroke-linecap:round;stroke-linejoin:bevel;stroke-dasharray:4, 2;stroke-dashoffset:0;stroke-opacity:1"
         d="m 700,2128.2673 v -18.685"
         id="path3082" /><path
         style="font-style:normal;font-weight:400;font-size:35.2778px;font-family:'Source Code Pro';fill:none;stroke:#000000;stroke-width:1;stroke-linecap:round;stroke-linejoin:bevel;stroke-dasharray:4, 2;stroke-dashoffset:0;stroke-opacity:1"
         d="m 715,2129.5753 h 35"
         id="path3080" /><path
         style="font-style:normal;font-weight:400;font-size:35.2778px;font-family:'Source Code Pro';fill:none;stroke:#000000;stroke-width:1;stroke-linecap:round;stroke-linejoin:bevel;stroke-dasharray:4, 2;stroke-dashoffset:0;stroke-opacity:1"
         d="m 715,2129.5753 c -8.284,0 -15,-0.586 -15,-1.308"
         id="path3078" /><path
         style="font-style:normal;font-weight:400;font-size:35.2778px;font-family:'Source Code Pro';fill:none;stroke:#000000;stroke-width:1;stroke-linecap:round;stroke-linejoin:bevel;stroke-dasharray:4, 2;stroke-dashoffset:0;stroke-opacity:1"
         d="m 1350,2129.5753 h 35"
         id="path3076" /><path
         style="font-style:normal;font-weight:400;font-size:35.2778px;font-family:'Source Code Pro';fill:none;stroke:#000000;stroke-width:1;stroke-linecap:round;stroke-linejoin:bevel;stroke-dasharray:4, 2;stroke-dashoffset:0;stroke-opacity:1"
         d="m 1385,2129.5753 c 8.284,0 15,-0.586 15,-1.308"
         id="path3074" /><path
         style="font-style:normal;font-weight:400;font-size:35.2778px;font-family:'Source Code Pro';fill:none;stroke:#000000;stroke-width:1;stroke-linecap:round;stroke-linejoin:bevel;stroke-dasharray:4, 2;stroke-dashoffset:0;stroke-opacity:1"
         d="m 1400,2128.2673 v -18.685"
         id="path3072" /><path
         style="font-style:normal;font-weight:400;font-size:35.2778px;font-family:'Source Code Pro';fill:none;stroke:#000000;stroke-width:1;stroke-linecap:round;stroke-linejoin:bevel;stroke-dasharray:4, 2;stroke-dashoffset:0;stroke-opacity:1"
         d="m 750,2129.5753 h 600"
         id="path3070" /><path
         style="font-style:normal;font-weight:400;font-size:35.2778px;font-family:'Source Code Pro';fill:none;stroke:#000000;stroke-width:1;stroke-linecap:round;stroke-linejoin:bevel;stroke-dasharray:4, 2;stroke-dashoffset:0;stroke-opacity:1"
         d="m 750,2129.5753 v 0.114"
         id="path3068" /><path
         style="font-style:normal;font-weight:400;font-size:35.2778px;font-family:'Source Code Pro';fill:none;stroke:#000000;stroke-width:1;stroke-linecap:round;stroke-linejoin:bevel;stroke-dasharray:4, 2;stroke-dashoffset:0;stroke-opacity:1"
         d="m 1350,2129.5753 v 0.114"
         id="path3066" /><path
         style="font-style:normal;font-weight:400;font-size:35.2778px;font-family:'Source Code Pro';fill:none;stroke:#000000;stroke-width:1;stroke-linecap:round;stroke-linejoin:bevel;stroke-dasharray:4, 2;stroke-dashoffset:0;stroke-opacity:1"
         d="M 1400,840.03963 H 700"
         id="path3064" /><path
         style="font-style:normal;font-weight:400;font-size:35.2778px;font-family:'Source Code Pro';fill:none;stroke:#000000;stroke-width:1;stroke-linecap:round;stroke-linejoin:bevel;stroke-dasharray:4, 2;stroke-dashoffset:0;stroke-opacity:1"
         d="m 750,2129.6893 h 600"
         id="path3062" /><path
         style="font-style:normal;font-weight:400;font-size:35.2778px;font-family:'Source Code Pro';fill:none;stroke:#000000;stroke-width:1;stroke-linecap:round;stroke-linejoin:bevel;stroke-dasharray:4, 2;stroke-dashoffset:0;stroke-opacity:1"
         d="m 700,870.05463 h 700"
         id="path3060" /><path
         style="font-style:normal;font-weight:400;font-size:35.2778px;font-family:'Source Code Pro';fill:none;stroke:#000000;stroke-width:1;stroke-linecap:round;stroke-linejoin:bevel;stroke-dasharray:4, 2;stroke-dashoffset:0;stroke-opacity:1"
         d="m 700,2079.7113 h 700"
         id="path3058" /><path
         style="font-style:normal;font-weight:400;font-size:35.2778px;font-family:'Source Code Pro';fill:none;stroke:#000000;stroke-width:1;stroke-linecap:round;stroke-linejoin:bevel;stroke-dasharray:4, 2;stroke-dashoffset:0;stroke-opacity:1"
         d="m 700,2109.5823 h 700"
         id="path3056" /></g><rect
       style="display:inline;fill:#ababab;fill-opacity:1;stroke:none;stroke-width:0.824621;stroke-dasharray:none;stroke-opacity:1"
       id="rect5104"
       width="67.999992"
       height="120"
       x="-5.6843419e-14"
       y="0"
       inkscape:label="Background" /><g
       id="g2"
       inkscape:label="GRAPHIC"
       style="display:inline"
       transform="matrix(1.1391319,0,0,1.1391319,-10.594678,0.66435116)"><path
         id="path5"
         style="display:inline;fill:#242424;fill-opacity:1;stroke-width:0.0811136"
         d="m 52.471643,47.694213 c -0.146524,0 -0.479557,0.359346 -0.479557,0.517281 0,0.09953 0.09428,0.370727 0.209806,0.602549 0.11552,0.23182 0.263523,0.42168 0.32866,0.42168 0.127889,0 0.596863,-0.223769 0.596863,-0.284739 0,-0.09012 -0.608732,-1.256771 -0.655772,-1.256771 z m -1.085204,-1.682068 c -0.1513,0.01942 -0.439603,0.153514 -0.539504,0.273886 -0.114377,0.137819 -0.0049,0.568074 0.250116,0.982369 0.190058,0.308735 0.232214,0.315482 0.64802,0.103352 l 0.314192,-0.160197 -0.276468,-0.54932 c -0.152194,-0.30217 -0.288602,-0.584039 -0.302824,-0.626317 -0.008,-0.02379 -0.0431,-0.03023 -0.09353,-0.02379 z m 0.690395,-0.89762 c 0.03856,0.01355 0.507577,0.907632 1.042313,1.98696 l 0.972034,1.962671 -0.866613,0.463021 c -1.070023,0.5714 -1.412769,0.630415 -1.794722,0.309026 -0.418989,-0.352436 -0.631851,-1.066234 -0.418579,-1.403017 0.05275,-0.0833 -0.01598,-0.15871 -0.264583,-0.289904 -0.259818,-0.137107 -0.396237,-0.292743 -0.599964,-0.685228 -0.30617,-0.589847 -0.332758,-0.951855 -0.0925,-1.25729 0.167418,-0.212839 1.884199,-1.134819 2.022614,-1.086239 z m 0.526585,-0.889868 -1.867072,0.93276 c -1.026988,0.51308 -1.87787,0.942229 -1.89084,0.953947 -0.01296,0.01169 0.476525,1.157483 1.08779,2.546099 0.611267,1.38861 1.126482,2.524911 1.144632,2.524911 0.06072,0 3.792712,-1.725044 3.858162,-1.783356 0.03551,-0.03164 -0.474596,-1.20864 -1.133782,-2.615861 z m -9.070766,4.621941 c 0.147846,0.01511 0.166372,0.257045 0.34985,1.51412 0.09357,0.64108 0.152451,1.211569 0.130742,1.26814 -0.0217,0.05656 -0.193501,0.117422 -0.381889,0.135393 -0.276577,0.02638 -0.349959,0.0051 -0.380339,-0.111107 -0.03533,-0.135115 -0.05033,-0.134009 -0.242363,0.01707 -0.24251,0.190759 -0.722406,0.211791 -0.964282,0.04237 -0.23734,-0.166235 -0.320712,-0.432827 -0.479042,-1.53324 -0.153442,-1.066479 -0.142502,-1.102442 0.334349,-1.104841 l 0.249597,-0.0011 0.0987,0.669211 c 0.197046,1.33354 0.144103,1.220626 0.552421,1.174604 0.19703,-0.0222 0.382125,-0.06431 0.411345,-0.09353 0.02923,-0.02923 -0.0069,-0.46182 -0.0801,-0.961181 -0.07317,-0.499364 -0.126024,-0.912707 -0.117824,-0.918808 0.0083,-0.0061 0.150778,-0.03562 0.316778,-0.06563 0.08884,-0.01606 0.152773,-0.03655 0.202054,-0.03152 z m 0.707451,-1.388544 c -0.679471,0.02796 -3.310065,0.242003 -3.349668,0.280085 -0.03389,0.03258 0.132096,4.055493 0.197406,4.78472 l 0.04392,0.48886 1.839163,-0.311608 c 1.011523,-0.171249 1.853732,-0.326176 1.871721,-0.344168 0.03733,-0.03732 -0.398629,-4.847095 -0.443899,-4.897373 -0.0042,-0.0047 -0.06158,-0.0045 -0.158647,-5.3e-4 z m 3.244762,1.449004 c 0.08274,-0.0044 0.193898,0.01328 0.336931,0.05168 l 0.168982,0.04548 -0.147794,0.947227 c -0.0814,0.520904 -0.20719,1.384949 -0.279569,1.920298 -0.07238,0.53535 -0.154932,0.993672 -0.183452,1.018543 -0.02852,0.02487 -0.179755,0.02487 -0.335896,0 -0.224092,-0.03567 -0.279794,-0.07917 -0.264583,-0.207224 0.01058,-0.08922 0.129145,-0.881573 0.263548,-1.760614 0.134406,-0.879044 0.24443,-1.691471 0.24443,-1.805059 0,-0.134898 0.05951,-0.203044 0.197403,-0.210323 z m -1.245917,-0.612881 c -0.09251,-0.0011 -0.148318,0.0016 -0.156065,0.0093 -0.04758,0.04714 -0.902097,5.24732 -0.869196,5.2896 0.0076,0.0098 0.81511,0.106029 1.794206,0.21394 0.979101,0.107913 1.855967,0.200154 1.948717,0.205155 0.16306,0.0087 0.176271,-0.08017 0.40721,-2.688209 0.211505,-2.388598 0.225171,-2.703068 0.115755,-2.75177 -0.158467,-0.07052 -2.593049,-0.270311 -3.240627,-0.278019 z m 22.761916,1.236615 c -0.834845,0.0077 -1.726785,0.02204 -2.854606,0.05116 -9.006025,0.232466 -10.982666,0.434864 -12.899469,1.319816 -1.937782,0.894641 -1.928315,0.88756 -2.875793,2.105297 -0.544454,0.699746 -0.988838,1.14763 -1.353923,1.364774 -0.297209,0.176781 -0.955276,0.208084 -1.831414,0.08682 -0.501709,-0.06944 -1.20328,-0.150522 -1.559079,-0.180351 l -0.646988,-0.05426 -0.16433,-0.486791 c -0.135739,-0.402259 -0.213387,-0.511164 -0.448035,-0.628385 -0.751612,-0.375473 -1.622123,0.0071 -1.622123,0.713134 0,0.267938 -0.114679,0.250902 -0.328663,-0.04961 -0.358182,-0.503016 -0.843158,-0.491906 -1.220081,0.02842 -0.450228,0.621522 -0.626504,1.820027 -0.551902,3.748609 0.05888,1.522357 0.203213,2.180537 0.538466,2.453598 0.362863,0.295542 0.766038,0.453937 1.171507,0.460435 0.315079,0.0051 0.422693,-0.03464 0.630967,-0.234092 0.248283,-0.237768 0.253519,-0.238948 0.471808,-0.09664 0.121412,0.07916 0.450818,0.255635 0.732253,0.392224 0.428249,0.207761 0.57948,0.241707 0.927592,0.208256 0.434488,-0.04175 0.532127,-0.116742 0.80822,-0.620633 l 0.139009,-0.253214 0.59118,0.04961 c 0.928066,0.07772 2.016953,0.318487 2.542995,0.561724 0.378481,0.175003 0.663993,0.414636 1.333254,1.119312 1.669434,1.757772 2.397718,2.455015 2.717662,2.602941 0.178451,0.0825 0.65269,0.306412 1.054201,0.497642 0.833218,0.396846 1.046303,0.466577 1.946651,0.636656 1.350004,0.255019 2.971001,0.367813 6.083866,0.422712 1.739889,0.03069 3.510306,0.08408 3.934126,0.118856 0.423815,0.03483 1.317771,0.04834 1.986958,0.02997 0.316836,-0.0087 0.452768,-0.01357 0.745691,-0.0217 v -0.665075 c -1.263224,0.0054 -2.384446,5.29e-4 -2.415355,-0.02842 -0.0186,-0.01733 -1.457336,-0.05553 -3.197222,-0.08475 -3.677216,-0.06178 -5.882331,-0.170132 -6.826973,-0.334862 -0.790866,-0.137917 -1.654399,-0.441053 -2.662369,-0.935344 -0.797095,-0.390877 -1.295535,-0.849993 -2.370916,-2.181778 -0.864417,-1.070523 -1.898642,-1.808626 -2.780707,-1.98541 -0.156146,-0.03129 -0.53934,-0.132612 -0.851628,-0.224793 -0.312287,-0.09218 -0.867592,-0.230129 -1.234035,-0.30644 -0.628951,-0.130979 -0.679278,-0.130707 -0.895035,5.29e-4 -0.125706,0.07645 -0.294576,0.28625 -0.375687,0.466122 -0.19454,0.431501 -0.4029,0.538573 -0.849561,0.438216 -0.241382,-0.05423 -0.43869,-0.176088 -0.645954,-0.399457 -0.481915,-0.519356 -1.195284,-0.561412 -1.441773,-0.08475 -0.134456,0.259993 -0.283575,0.267748 -0.762746,0.03979 -0.384482,-0.182909 -0.483118,-1.087017 -0.288869,-2.644799 0.06429,-0.515554 0.15681,-1.30167 0.205671,-1.747181 0.04886,-0.445505 0.121211,-0.843129 0.161232,-0.88315 0.04295,-0.04294 0.155514,0.0232 0.274402,0.161232 0.178686,0.207454 0.251216,0.232759 0.640786,0.223758 0.574117,-0.01318 0.791168,-0.131477 0.791168,-0.432014 0,-0.370623 0.07875,-0.490411 0.322977,-0.490411 0.252912,0 0.36975,0.107646 0.445965,0.411345 0.03026,0.120544 0.192853,0.299037 0.387575,0.425297 0.275593,0.178699 0.430874,0.218045 0.86713,0.220141 0.292206,0.0013 0.968952,0.0553 1.504302,0.119891 1.607338,0.193937 1.856287,0.173617 2.601907,-0.210839 0.825426,-0.425606 1.466053,-0.908756 1.675352,-1.263491 0.09095,-0.154154 0.425127,-0.47797 0.74259,-0.719852 0.317461,-0.241885 0.668266,-0.509625 0.779796,-0.594797 0.518081,-0.395607 1.52096,-1.012174 1.814359,-1.115692 0.852726,-0.30086 1.643153,-0.426664 4.116028,-0.655256 1.29886,-0.120055 2.385822,-0.145614 6.236829,-0.144696 1.519786,2.65e-4 2.836638,0.007 4.030761,0.01757 z m -31.906062,2.560566 c -0.07357,1.1e-5 -0.134006,0.09613 -0.287321,0.348816 -0.199986,0.329608 -0.20701,0.367919 -0.08113,0.441317 0.206036,0.12015 0.220038,0.112403 0.461989,-0.253214 0.213056,-0.321937 0.216826,-0.343342 0.07648,-0.445968 -0.07692,-0.05624 -0.125873,-0.09096 -0.170016,-0.09095 z m 0.170532,-0.743622 c 0.2032,-4.7e-5 0.449191,0.110366 0.820621,0.331245 0.687176,0.408647 1.170991,0.85743 1.170991,1.085723 0,0.288102 -0.397749,0.987372 -0.734841,1.29191 -0.362122,0.327158 -0.349343,0.360519 -0.75551,0.170016 -0.243475,-0.114194 -0.328567,-0.129743 -0.139827,-0.427836 0.172503,-0.27245 0.18854,-0.243835 0.257771,-0.230577 0.11921,0.02283 0.237609,0.03514 0.436546,-0.304321 0.113414,-0.193516 0.206187,-0.373041 0.206187,-0.398941 0,-0.05985 -0.568018,-0.413787 -0.600479,-0.374137 -0.01331,0.01625 -0.233397,0.27419 -0.467416,0.642247 -0.234019,0.368046 -0.403892,0.635135 -0.524515,0.669208 -0.15157,0.04281 -0.76544,-0.514689 -0.8493,-0.735264 -0.09911,-0.260667 0.193461,-0.91926 0.616501,-1.387512 0.199694,-0.220996 0.360071,-0.331716 0.563271,-0.331761 z m -1.071769,-1.704806 -1.106908,1.639692 -1.106392,1.639179 0.30644,0.181901 c 0.168519,0.09996 1.20091,0.727807 2.293917,1.395261 1.093007,0.667457 2.005462,1.214565 2.027782,1.216464 0.05057,0.0039 1.979353,-2.747565 2.008664,-2.865458 0.01175,-0.04727 -0.718635,-0.604092 -1.622639,-1.237134 -0.90401,-0.633036 -1.903759,-1.33492 -2.222088,-1.56011 z m 32.807299,1.267106 c -0.917274,0.01873 -2.279529,0.07255 -3.416327,0.138493 -1.424368,0.08261 -2.712691,0.130316 -2.862876,0.105937 -0.266306,-0.04321 -1.924553,0.06369 -2.420525,0.156062 -0.211084,0.03931 -0.262765,0.09872 -0.342095,0.395324 -0.0579,0.216461 -0.242475,0.514898 -0.485759,0.784966 l -0.392224,0.435115 0.06976,0.40566 c 0.03838,0.223064 0.06997,1.099018 0.07028,1.946653 5.29e-4,1.445117 -0.02545,1.898369 -0.253214,4.380092 -0.04914,0.53535 -0.07851,1.389965 -0.06511,1.899111 l 0.02429,0.926041 0.247529,0.08785 c 0.674423,0.240406 1.1519,0.872641 1.2299,1.628325 0.02569,0.248777 0.06853,0.46577 0.0956,0.48214 0.02708,0.01635 0.450805,0.05565 0.941544,0.08733 0.490739,0.03168 1.12957,0.08728 1.419553,0.124024 0.289978,0.03673 1.165929,0.04405 1.946651,0.01601 0.780716,-0.02801 2.131422,-0.05441 3.001367,-0.05891 0.420055,-0.0021 0.81348,-0.01275 1.191657,-0.02791 v -0.264067 c -0.160668,0.0064 -0.288245,0.01495 -0.461471,0.02066 -4.88379,0.161319 -6.582671,0.144298 -7.543725,-0.07545 -0.236959,-0.05418 -0.287994,-0.104711 -0.309023,-0.305406 -0.08238,-0.786222 -0.320673,-1.151067 -1.093475,-1.675868 l -0.487826,-0.331245 0.05271,-1.712558 c 0.02904,-0.941742 0.09309,-1.967674 0.142629,-2.279962 0.04953,-0.31229 0.09954,-1.631376 0.111104,-2.931604 l 0.02119,-2.364198 0.250629,-0.312642 c 0.137819,-0.171982 0.337106,-0.476909 0.442868,-0.677479 0.161914,-0.307057 0.242718,-0.375118 0.510564,-0.429948 0.17495,-0.03581 1.577472,-0.09927 3.116604,-0.141076 1.539131,-0.04181 3.437112,-0.108394 4.217831,-0.147793 0.331705,-0.01672 0.69092,-0.02755 1.029393,-0.03411 z m -25.25439,4.004918 c -0.109218,0.03 -0.109453,0.628364 0,2.617957 0.04924,0.895028 0.105963,1.273106 0.186129,1.246616 0.06686,-0.02207 0.125889,-0.308078 0.140717,-0.682472 0.03554,-0.89642 -0.202769,-3.216176 -0.326846,-3.182101 z m -8.7363,1.719283 c 0.302104,-0.01106 0.701797,0.08736 0.850596,0.23616 0.161927,0.16193 0.165012,0.366691 0.01757,1.150834 -0.0422,0.224422 -0.0376,0.227462 0.309026,0.202573 0.34467,-0.02477 0.322191,-0.0363 0.377756,-0.335897 0.04667,-0.251637 0.03581,-0.215802 -0.03928,-0.237053 -0.165931,-0.04696 -0.21195,-0.220623 -0.118338,-0.464571 0.06611,-0.172276 0.268407,-0.173104 0.579292,0.03307 0.189029,0.125362 0.161235,0.07333 0.161235,0.493884 0,0.521499 -0.159229,0.962022 -0.393259,1.087273 -0.332081,0.177726 -1.168696,0.100574 -1.281234,-0.134247 -0.05508,-0.114929 -0.01328,-0.690488 0.02734,-1.156919 0.01778,-0.204362 -0.04355,-0.324758 -0.321704,-0.324758 -0.271616,0 -0.278794,0.01156 -0.331764,0.376206 -0.08006,0.551146 -0.110842,0.570767 -0.01394,0.597379 0.133522,0.03667 0.161911,0.03523 0.122473,0.182417 -0.0269,0.100378 -0.04948,0.227944 -0.05013,0.283705 -0.0016,0.154556 -0.229939,0.120964 -0.445452,-0.05374 -0.169932,-0.137755 -0.19172,-0.222707 -0.19172,-0.753959 0,-0.65592 0.13603,-0.97387 0.484725,-1.132747 0.06614,-0.03013 0.15613,-0.04592 0.256831,-0.04961 z m -1.733226,-1.118278 c -0.03516,0.02976 -0.603033,3.710496 -0.576192,3.734658 0.01483,0.01336 1.158459,0.114826 2.541447,0.225824 1.382988,0.110998 2.55012,0.194837 2.593639,0.186037 0.09569,-0.01931 0.775303,-2.820784 0.702284,-2.894915 -0.05043,-0.05119 -5.225028,-1.282203 -5.261178,-1.251604 z m 9.306719,-0.09549 -0.329033,0.385062 c -0.180957,0.211649 -0.302934,0.42724 -0.270835,0.479178 0.154774,0.250428 0.610287,-0.180131 0.604179,-0.571132 z m 3.173424,0.323712 c -0.04168,0 -0.03714,0.278575 0.01034,0.618675 0.0474,0.340103 0.115412,0.851454 0.15073,1.135951 0.04103,0.330554 0.110082,0.500746 0.191152,0.472055 0.06979,-0.0247 0.114457,-0.136775 0.09934,-0.248702 -0.01511,-0.111925 -0.05795,-0.541725 -0.09523,-0.95576 -0.06323,-0.702349 -0.174826,-1.022219 -0.35627,-1.022219 z m -3.267179,1.023193 c -0.118743,0 -0.201457,0.395399 -0.135473,0.647732 0.06347,0.242737 0.253141,0.228574 0.30179,-0.02239 0.04335,-0.223601 -0.0636,-0.625354 -0.166317,-0.625354 z m 13.079961,2.422386 c -0.05286,0.01224 -0.09015,0.06918 -0.09015,0.150239 0,0.108081 0.0888,0.196904 0.196904,0.196904 0.219187,0 0.181121,-0.267275 -0.04903,-0.343988 -0.02029,-0.0067 -0.04012,-0.0072 -0.05774,-0.0032 z M 39.79748,59.388073 c -0.719389,2.64e-4 -1.270207,0.384616 -1.270207,0.933794 0,0.337738 0.09853,0.516829 0.364837,0.66249 0.271367,0.148428 0.725339,0.108032 1.020609,-0.09095 0.157514,-0.106145 0.373351,-0.378013 0.506947,-0.639236 0.293968,-0.574815 0.22611,-0.762778 -0.304374,-0.842327 -0.108522,-0.01627 -0.21504,-0.02381 -0.317812,-0.02376 z m -0.07596,0.635619 c 0.206579,0 0.226076,0.06065 0.08061,0.250116 -0.132101,0.172058 -0.399224,0.304334 -0.524515,0.259413 -0.276839,-0.09927 0.08058,-0.509529 0.443902,-0.509529 z m 16.1616,0.747722 c -0.04301,0.0067 -0.08722,0.03629 -0.124755,0.09568 -0.06231,0.09857 -0.113899,0.246532 -0.114817,0.329121 -0.0028,0.221961 0.32026,0.182792 0.409483,-0.04975 0.08017,-0.208759 -0.04089,-0.39514 -0.169914,-0.375041 z m 6.47146,1.459274 c -0.08001,0.005 -0.142445,0.04307 -0.142445,0.123195 0,0.08232 0.05715,0.172896 0.126403,0.200834 0.256817,0.103615 0.391443,0.06229 0.358674,-0.109724 -0.02638,-0.138483 -0.209283,-0.222673 -0.342632,-0.214305 z m -36.978956,0.569578 c -0.810995,-0.0037 -1.721165,0.01474 -2.787426,0.05064 -3.22449,0.10863 -5.110729,0.245393 -7.502901,0.544153 -3.560621,0.444693 -3.979814,0.596032 -5.7846374,1.323967 v 0.89762 c 3.0123294,-1.328983 7.5508774,-1.874377 14.5091664,-1.926508 0.577165,-0.0043 1.155114,-0.0024 1.731678,0.0067 3.10666,0.04946 3.909538,0.153355 7.388696,0.956014 0.722618,0.166703 0.987862,0.178681 4.258655,0.192751 2.787597,0.01201 3.691186,0.043 4.501533,0.154514 2.58087,0.355156 4.307094,0.911527 4.738211,1.527038 0.827921,1.182015 -2.109993,3.111566 -6.697781,4.398698 -1.936763,0.543369 -2.96069,0.658878 -6.922058,0.779798 -3.296909,0.100637 -3.289487,0.09908 -7.787121,1.286224 -2.028157,0.535337 -3.067315,0.764911 -4.258655,0.93948 C 18.555056,74.254902 16.836598,74.103966 15.89248,73.50401 15.435508,73.213619 15.141565,72.842279 14.631059,71.911342 14.114281,70.968965 13.437379,70.239591 12.785176,69.9218 12.245895,69.659032 12.165192,69.645709 11.019215,69.37267 9.9516218,69.118307 9.9127048,69.124268 9.3006596,68.927053 v 0.992706 c 0.8021674,0.236275 -0.4208418,-0.05052 1.0758784,0.288841 0.870034,0.197271 1.772887,0.452033 2.006596,0.566376 0.542062,0.265205 0.930607,0.709459 1.487248,1.701704 0.893058,1.591929 1.744787,2.206728 3.413745,2.464448 0.752047,0.116131 2.79826,0.03781 3.925341,-0.150378 1.390379,-0.232156 2.227662,-0.423474 4.704623,-1.07487 3.516033,-0.924655 3.172287,-0.873482 6.713285,-0.997871 3.232596,-0.113554 3.448864,-0.12782 4.967138,-0.33383 1.85933,-0.252288 4.957667,-1.226611 6.71277,-2.110465 1.820397,-0.916738 2.980656,-2.071348 3.119189,-3.104202 0.170889,-1.27408 -1.475518,-2.279669 -4.519105,-2.760557 -2.097188,-0.331348 -3.949684,-0.416478 -7.462594,-0.342098 -1.499663,0.03175 -1.730539,0.0013 -3.893301,-0.517798 -2.200466,-0.52819 -3.742863,-0.737756 -6.175851,-0.748792 z m 36.390617,0.588814 c -0.02486,0.0035 -0.04568,0.01237 -0.06134,0.02814 -0.04581,0.04581 -0.01632,0.164542 0.0656,0.263243 0.174913,0.210749 0.33681,0.229296 0.446404,0.05196 0.07925,-0.128224 -0.276642,-0.368951 -0.45066,-0.343321 z m -38.538806,2.158307 c 0.164818,0.0096 0.28602,0.09922 0.418062,0.272333 0.241482,0.316598 0.222188,0.397468 -0.122989,0.517798 -0.196047,0.06834 -0.25559,0.06049 -0.31316,-0.04237 -0.06086,-0.108731 -0.114391,-0.112956 -0.37207,-0.02791 -0.165551,0.05464 -0.319161,0.147233 -0.341581,0.205671 -0.02243,0.05844 0.108094,0.462495 0.289904,0.897621 0.181812,0.435123 0.321329,0.798187 0.310059,0.807185 -0.01127,0.0089 -0.100471,0.05786 -0.19792,0.108522 -0.290264,0.150886 -0.201937,0.286803 -0.876433,-1.350823 -0.308687,-0.749466 -0.313267,-0.886994 -0.03152,-0.943094 0.0616,-0.01228 0.312736,-0.118634 0.558105,-0.236677 0.306547,-0.147479 0.514727,-0.217893 0.679545,-0.208257 z m 0.437699,-1.513086 c -0.02104,-0.02103 -0.684519,0.186648 -1.474328,0.461471 -1.053698,0.366649 -1.424467,0.529333 -1.393197,0.610814 0.02344,0.06108 0.3058,1.059241 0.627352,2.218471 0.321552,1.159226 0.623677,2.107879 0.671277,2.107879 0.07716,0 3.056251,-0.970428 3.109371,-1.012856 0.02675,-0.02138 -1.487685,-4.332989 -1.540475,-4.385779 z m 8.663038,2.164207 c 0.02892,0.0051 0.06032,0.01508 0.09508,0.02894 0.07807,0.03114 0.31787,0.0699 0.532784,0.08578 0.214914,0.0159 0.507071,0.09615 0.649057,0.1788 0.225962,0.13153 0.261157,0.199181 0.283186,0.542602 l 0.02532,0.392742 -0.258382,-0.05168 c -0.142108,-0.02841 -0.292823,-0.05168 -0.334863,-0.05168 -0.04203,0 -0.05456,-0.07043 -0.02739,-0.156062 0.05165,-0.162732 0.009,-0.187288 -0.497127,-0.288872 -0.284851,-0.05717 -0.253133,-0.132405 -0.518831,1.23765 -0.05428,0.279918 -0.120871,0.520652 -0.148312,0.534852 -0.02744,0.01421 -0.141167,0.0013 -0.252697,-0.02842 -0.239029,-0.06352 -0.239536,-0.05437 0.01602,-1.410251 0.159047,-0.843862 0.233706,-1.050258 0.436149,-1.01441 z M 31.98814,64.790327 c -0.02305,-0.0019 -0.03665,-0.0011 -0.03979,0.0026 -0.06048,0.06949 -1.370459,4.172765 -1.370459,4.292761 0,0.04719 0.283154,0.161274 0.628902,0.253214 0.345746,0.09194 1.0301,0.275921 1.520837,0.408763 0.490738,0.132837 0.934151,0.243912 0.98547,0.247013 0.103375,0.0064 1.228344,-4.417825 1.144632,-4.501534 -0.08627,-0.08627 -2.523781,-0.67695 -2.869592,-0.702799 z m -5.016231,2.497521 h 0.280603 v 0.74259 0.869199 l 0.38809,-0.382405 c 0.330094,-0.325131 0.43532,-0.382408 0.706934,-0.382408 h 0.31936 l -0.518831,0.524 -0.519348,0.523483 0.46147,0.692981 0.460954,0.692981 h -0.22841 c -0.187291,0 -0.297929,-0.09525 -0.61805,-0.531233 -0.374009,-0.509373 -0.396623,-0.52532 -0.543119,-0.392742 -0.104984,0.09501 -0.152446,0.248234 -0.152446,0.49041 0,0.335447 -0.01155,0.352433 -0.237194,0.352433 h -0.237195 l 0.03824,-1.398881 c 0.05285,-1.928051 0.05256,-1.800408 0.398942,-1.800408 z m 2.190564,-0.57981 c -0.03012,-0.0024 -0.06741,0.0011 -0.115238,0.0088 -0.117206,0.01873 -0.861257,0.05733 -1.653129,0.08578 l -1.439706,0.05219 v 2.181262 c 0,1.688121 0.02281,2.182233 0.101286,2.186429 0.05577,0.003 0.74012,0.07167 1.520837,0.152448 0.780719,0.08077 1.502108,0.151595 1.602487,0.157096 l 0.182417,0.0098 -10e-4,-2.129586 c -5.03e-4,-1.17108 -0.02335,-2.264225 -0.05064,-2.429309 -0.03341,-0.202118 -0.05692,-0.267547 -0.147278,-0.274921 z m -10.62054,1.984375 c -0.153921,0.01725 -0.260825,0.207213 -0.409794,0.626837 -0.120344,0.338995 -0.20745,0.62492 -0.19327,0.635619 0.01418,0.01069 0.171916,0.07804 0.350366,0.149863 0.17845,0.07182 0.347825,0.132773 0.376205,0.134874 0.09517,0.0077 0.336811,-0.593945 0.37517,-0.93431 0.03212,-0.284924 0.0084,-0.357436 -0.151928,-0.469738 -0.145337,-0.101799 -0.254397,-0.153485 -0.346749,-0.143145 z m -0.984953,1.841232 c -0.04368,0.0021 -0.06864,0.02117 -0.08216,0.05788 -0.01995,0.05415 -0.12472,0.361233 -0.233061,0.682128 l -0.196887,0.583427 0.216524,0.07906 c 0.492757,0.180436 0.582682,0.113946 0.783932,-0.580842 0.15344,-0.529728 0.113324,-0.636622 -0.291456,-0.777732 -0.09034,-0.03149 -0.153206,-0.04612 -0.196887,-0.04392 z m 0.06925,-2.648934 c 0.12142,-0.0011 0.406119,0.08135 0.923974,0.263033 0.525779,0.184468 1.036178,0.387572 1.134298,0.451652 0.53929,0.352197 0.337866,1.550458 -0.356567,2.122868 -0.237286,0.195588 -0.281192,0.270711 -0.204122,0.347782 0.13675,0.136747 0.123135,0.837155 -0.0217,1.117245 -0.06603,0.127683 -0.216942,0.308367 -0.33538,0.401527 -0.308987,0.243051 -0.669028,0.208269 -1.690853,-0.163299 -0.488955,-0.1778 -0.900583,-0.334716 -0.914673,-0.348816 -0.01914,-0.01913 1.14868,-3.50443 1.395264,-4.164086 0.0068,-0.01815 0.02929,-0.02759 0.06976,-0.02791 z m -0.635104,-0.788064 c -0.02055,0.02267 -1.390329,4.303287 -1.620573,5.064289 l -0.101285,0.335381 1.955952,0.613399 c 1.818331,0.570251 2.240174,0.680485 2.240174,0.584978 0,-0.02053 0.332437,-1.179634 0.738973,-2.575555 0.406536,-1.395918 0.744241,-2.569432 0.750342,-2.607593 0.01052,-0.06546 -3.916175,-1.467191 -3.963583,-1.414899 z m 24.848608,1.891356 c -0.162377,0.0047 -0.396099,0.08292 -0.725535,0.235127 -1.603735,0.740971 -4.208076,1.182875 -6.968566,1.182875 -0.964192,0 -1.054359,0.01288 -1.134299,0.162264 -0.06255,0.116792 -0.06066,0.210971 0.0062,0.335896 0.09194,0.171794 0.111705,0.173022 1.969905,0.12609 2.463819,-0.06222 3.760732,-0.251322 5.473049,-0.798401 1.304306,-0.416724 1.781027,-0.711732 1.677419,-1.038178 -0.04489,-0.141438 -0.135795,-0.210343 -0.298175,-0.205673 z" /></g><g
       id="g1"
       inkscape:label="BRANDING"
       style="display:inline"><path
         id="rect7321-12-0-9"
         style="display:inline;fill:#4795cd;fill-opacity:1;stroke:none;stroke-width:0.10271;stroke-dasharray:none;stroke-opacity:1"
         inkscape:label="contour"
         d="m 43.063423,85.725736 c -0.03965,0.001 -0.0795,0.0041 -0.119945,0.0082 L 25.17913,87.766788 c -0.647034,0.07405 -1.213872,0.593902 -1.213872,1.208038 v 0.859315 H -0.04407967 v 0.513254 H 23.965258 v 0.329073 H -0.04407967 v 0.277061 H 23.965258 v 0.511138 H -0.04407967 v 0.513254 H 23.965258 v 0.329073 H -0.04407967 v 0.277061 H 23.965258 v 0.511139 H -0.04407967 v 0.513253 H 23.965258 v 0.329074 H -0.04407967 v 0.277061 H 23.965258 V 94.72572 H -0.04407967 v 0.51327 H 23.965258 v 0.329074 H -0.04407967 v 0.277061 H 23.965258 v 2.929328 c 0,0.614136 0.566838,1.004486 1.213872,0.930443 l 17.764348,-2.032853 c 0.647024,-0.07405 1.215464,-0.594425 1.215464,-1.208571 V 95.845125 H 68.04408 V 95.568064 H 44.158942 V 95.23899 H 68.04408 V 94.725737 H 44.158942 V 94.214599 H 68.04408 V 93.937538 H 44.158942 V 93.608464 H 68.04408 V 93.095211 H 44.158942 V 92.584072 H 68.04408 V 92.307011 H 44.158942 V 91.977938 H 68.04408 V 91.464684 H 44.158942 V 90.953546 H 68.04408 V 90.676485 H 44.158942 V 90.347412 H 68.04408 V 89.834158 H 44.158942 v -3.170276 c 0,-0.575753 -0.499891,-0.954323 -1.095519,-0.938403 z m -0.125789,0.5313 c 0.358901,0.0041 0.715562,0.334743 0.71548,0.530776 l -0.0041,9.592608 c -1.23e-4,0.272542 -0.385851,0.741723 -0.762716,0.785005 l -17.552036,2.015864 c -0.417252,0.04796 -0.855501,-0.205287 -0.855602,-0.579605 l -0.0027,-9.684955 c 0.008,-0.32439 0.377989,-0.615604 0.703273,-0.633743 l 17.686854,-2.022232 c 0.02383,-0.0031 0.04776,-0.0041 0.07169,-0.0041 z m -0.488839,0.317929 c -0.03369,10e-4 -0.06799,0.0031 -0.102403,0.0072 l -16.569587,1.900161 c -0.550959,0.06317 -1.024386,0.480715 -1.024386,0.966 v 8.678097 c 0,0.485286 0.473427,0.794577 1.024386,0.7314 l 16.569587,-1.900171 c 0.550959,-0.06317 1.02279,-0.480715 1.02279,-0.966001 v -8.678096 c 0,-0.454955 -0.41458,-0.755136 -0.920357,-0.738826 z m -0.02126,0.260083 c 0.398885,-0.01417 0.68444,0.216842 0.684163,0.508478 l -0.0082,8.65474 c -2.26e-4,0.241677 -0.393483,0.634061 -0.765376,0.677261 l -16.561617,1.923507 c -0.440744,0.05115 -0.765624,-0.191041 -0.765369,-0.502109 l 0.0074,-8.677563 c 2.33e-4,-0.283839 0.370341,-0.62378 0.758471,-0.668767 l 16.569366,-1.909179 c 0.02753,-0.0031 0.05464,-0.0051 0.08124,-0.0062 z"
         sodipodi:nodetypes="cccsccccccccccccccccccccccccccccccccsscsccccccccccccccccccccccccccccccccsccccccccccccccccssccssccccccccccccc" /><path
         style="display:inline;fill:#242424;fill-opacity:1;stroke:none;stroke-width:0.10271;stroke-dasharray:none;stroke-opacity:1"
         d="m 25.907748,98.004322 c -0.124044,-0.02483 -0.143493,-0.05069 -0.184174,-0.243375 -0.07767,-0.367944 -0.06328,-0.812587 0.04329,-1.337439 0.03399,-0.167338 0.07311,-0.234661 0.179983,-0.309577 0.110361,-0.07745 0.204705,-0.10157 0.410019,-0.104754 0.180876,-0.0031 0.182818,-0.0021 0.276816,0.04509 0.05532,0.02809 0.112515,0.07022 0.137601,0.101775 0.04947,0.06188 0.04928,0.05801 0.0293,0.575464 -0.01229,0.318565 -0.0042,0.379476 0.05421,0.405613 0.13574,0.06076 0.490559,0.05088 0.870043,-0.02484 0.336843,-0.06676 0.610842,-0.11762 0.751639,-0.139502 0.06549,-0.01046 0.126704,-0.0233 0.136017,-0.02931 0.03832,-0.02473 0.180034,-0.704597 0.230113,-1.10403 0.07416,-0.591474 0.06189,-1.087585 -0.03432,-1.389387 -0.03444,-0.108013 -0.07228,-0.185831 -0.102566,-0.210906 -0.03243,-0.02697 -0.145527,-0.009 -0.619196,0.09384 -0.58667,0.128296 -0.945639,0.195773 -1.105473,0.207762 -0.182683,0.01395 -0.676889,-0.0031 -0.830045,-0.02789 -0.20069,-0.03277 -0.365314,-0.108948 -0.431654,-0.20005 -0.02549,-0.03491 -0.02667,-0.09801 -0.03473,-1.845681 -0.0045,-0.995233 -0.0087,-2.017111 -0.0095,-2.270876 l -9.99e-4,-0.461385 0.04651,-0.06982 c 0.120205,-0.180579 0.372388,-0.294515 0.661257,-0.298769 0.234506,-0.0031 0.380293,0.0515 0.467455,0.176313 0.03391,0.04855 0.03432,0.05282 0.04515,0.487388 0.006,0.241115 0.01229,0.817159 0.01393,1.280121 l 0.0032,0.841737 -0.04034,0.382631 c -0.04568,0.433123 -0.05714,0.900726 -0.02549,1.040249 0.03648,0.160885 0.06087,0.222621 0.09086,0.230123 0.04106,0.01046 0.277802,-0.01812 0.593619,-0.07124 0.299338,-0.05028 1.142761,-0.199508 1.192122,-0.210897 l 0.03128,-0.0061 v -2.05297 c 0,-1.565566 0.004,-2.066909 0.01684,-2.111526 0.02644,-0.09191 0.152467,-0.213229 0.292098,-0.281326 0.158311,-0.07716 0.282094,-0.108081 0.448743,-0.111791 0.120487,-0.0031 0.158845,0.0031 0.28768,0.04204 l 0.148657,0.04519 0.0059,2.413483 c 0.005,2.049027 0.0094,2.465773 0.02884,2.75974 0.03164,0.477077 0.04421,1.332737 0.02382,1.619526 -0.04241,0.596288 -0.164626,1.136427 -0.299918,1.325595 -0.08219,0.114914 -0.205328,0.214357 -0.385256,0.311094 -0.180409,0.09698 -0.305366,0.13873 -0.622981,0.208026 -0.473429,0.10327 -0.926565,0.170067 -1.306818,0.19263 -0.110871,0.0061 -0.373624,0.03695 -0.583896,0.06758 -0.397985,0.05791 -0.785485,0.08427 -0.899529,0.06136 z m 5.482475,-0.709582 c -0.0883,-0.01497 -0.165151,-0.06686 -0.198068,-0.133814 -0.04239,-0.08621 -0.03666,-0.606199 0.01191,-1.080204 0.07256,-0.708127 0.0936,-1.19062 0.09353,-2.144839 -5.3e-5,-0.704065 -0.0061,-0.906668 -0.05561,-1.838302 -0.04604,-0.868117 -0.05493,-1.116854 -0.06421,-1.795721 -0.0091,-0.665901 1.05e-4,-0.897407 0.04441,-1.11836 0.04226,-0.210591 0.08878,-0.293111 0.203985,-0.361707 0.204131,-0.121559 0.501708,-0.180029 1.227004,-0.241073 0.175865,-0.01476 0.494922,-0.04864 0.709018,-0.07501 0.94747,-0.117183 1.356843,-0.15437 1.779496,-0.161934 l 0.347557,-0.0061 0.066,0.03837 c 0.09051,0.05272 0.107821,0.09272 0.107821,0.249022 0,0.231903 -0.0649,0.982215 -0.09101,1.051758 -0.0403,0.107453 -0.480621,0.197748 -0.930848,0.190919 -0.149335,-0.0021 -0.263747,-0.01091 -0.310772,-0.02392 -0.0409,-0.01125 -0.07601,-0.02248 -0.07791,-0.02473 -0.0021,-0.0021 0.0172,-0.233879 0.0424,-0.51441 0.02531,-0.280531 0.0322,-0.209879 0.03569,-0.345229 0.0021,-0.07215 -0.07271,-0.0284 -0.208201,-0.03583 -0.113559,0.0031 -0.428696,0.03235 -0.619828,0.05863 -0.359519,0.05099 -0.957175,0.167268 -0.977447,0.20638 -0.05055,0.0975 -0.01274,1.041092 0.02768,1.805094 0.06442,1.21766 0.08634,2.320367 0.06563,3.297963 -0.01628,0.769121 -0.02288,0.89403 -0.08302,1.576162 -0.05556,0.630067 -0.07683,0.82589 -0.05797,0.861461 0.03107,0.05862 0.182067,0.02015 0.733157,-0.05689 0.187334,-0.02606 0.397477,-0.05598 0.481585,-0.06218 0.369192,-0.02718 0.576162,-0.05486 0.696743,-0.177027 0.127956,-0.129854 0.120593,-0.08122 0.1832,-1.099756 0.0244,-0.397592 0.05371,-1.759009 0.0407,-1.896436 -0.0211,-0.223497 -0.07761,-0.38767 -0.138653,-0.402274 -0.019,-0.0041 -0.09871,6e-4 -0.177089,0.01046 -0.29403,0.03979 -0.57088,0.02259 -0.70236,-0.04356 -0.146812,-0.07389 -0.179704,-0.217339 -0.09355,-0.407963 0.04245,-0.09384 0.144241,-0.228209 0.204633,-0.269967 0.06743,-0.04661 0.384966,-0.09221 1.153326,-0.165577 0.322811,-0.03094 0.400341,-0.01046 0.675529,0.172203 l 0.165558,0.110251 0.0089,0.485618 c 0.0049,0.267098 0.02141,0.6796 0.0369,0.916684 0.06521,0.998867 0.06511,1.471966 -1.5e-4,1.927824 -0.032,0.223618 -0.105136,0.529838 -0.158786,0.665035 -0.08511,0.214551 -0.29617,0.339429 -0.731737,0.432959 -0.633386,0.136012 -1.677662,0.284583 -2.695738,0.383528 -0.436422,0.04244 -0.68467,0.05577 -0.769442,0.04132 z m 5.767328,-0.69964 c -0.123003,-0.01608 -0.110763,0.04356 -0.129624,-0.632152 -0.0192,-0.689076 -0.0365,-1.026213 -0.113511,-2.215388 -0.109667,-1.693549 -0.127344,-2.102399 -0.127734,-2.954801 -4.8e-4,-0.991436 0.04731,-1.674893 0.170198,-2.436096 0.0433,-0.267982 0.03481,-0.246927 0.115192,-0.285416 0.152644,-0.07317 0.594452,-0.143278 0.933516,-0.148367 0.137665,-0.0021 0.220014,0.0021 0.242306,0.01384 0.09051,0.04539 0.3875,0.620874 0.77005,1.659067 0.117991,0.320225 0.264686,0.664191 0.302982,0.760836 0.182287,0.460021 0.570839,1.440203 1.090322,2.577451 0.555778,1.216675 0.745447,1.544317 0.754797,1.519373 0.01651,-0.04418 -0.0121,-1.994903 -0.03211,-2.78896 -0.0161,-0.63784 -0.01771,-1.122938 -0.008,-2.404962 0.006,-0.88325 0.01631,-1.617004 0.0217,-1.630552 0.0127,-0.03185 0.07942,-0.07399 0.166268,-0.104854 0.113602,-0.04051 0.316843,-0.06819 0.711184,-0.09688 0.444366,-0.03225 0.426384,-0.03166 0.415533,-0.01302 -0.0115,0.01913 -0.04311,0.414306 -0.06401,0.800265 -0.02351,0.433294 -0.0206,1.735013 0.006,2.801122 0.0275,1.093547 0.0303,1.168503 0.07232,1.915844 0.07941,1.414076 0.0777,2.06692 -0.007,2.688141 -0.02831,0.207365 -0.04331,0.254842 -0.09281,0.294088 -0.118301,0.09373 -0.440206,0.159247 -0.813613,0.165637 -0.334595,0.0051 -0.316613,0.017 -0.394901,-0.245978 -0.160227,-0.538134 -0.48992,-0.995071 -1.008726,-1.991189 -0.431583,-0.828659 -0.330112,-0.687315 -1.249638,-2.788308 -0.38048,-0.869318 -0.648298,-1.607223 -0.654938,-1.61451 -0.0159,-0.0175 0.0127,0.895137 0.0295,2.07327 0.0126,0.878619 0.0482,3.485769 0.06081,4.45228 l 0.006,0.428135 -0.035,0.02859 c -0.0193,0.01567 -0.06701,0.03888 -0.106086,0.05129 -0.21109,0.06758 -0.86077,0.144997 -1.030336,0.122729 z"
         id="path3141-3-2"
         sodipodi:nodetypes="cssccccssccssscccccsccscssccssccccssccccccsssscccccssscsssccccssscccssccsssssccsssccscscccsssssscccsssscscssssccscccsssssccsssssccccc"
         inkscape:label="logo" /></g><g
       id="g3"
       inkscape:label="CONTROLS TEXT"><text
         xml:space="preserve"
         style="font-style:normal;font-variant:normal;font-weight:normal;font-stretch:normal;font-size:3.88056px;line-height:1.25;font-family:Questrial;-inkscape-font-specification:'Questrial, Normal';font-variant-ligatures:normal;font-variant-caps:normal;font-variant-numeric:normal;font-variant-east-asian:normal;letter-spacing:0.185208px;fill:none;fill-opacity:1;stroke:#000000;stroke-width:0.1;stroke-dasharray:none;stroke-opacity:1"
         x="7.8358111"
         y="49.966568"
         id="text2625-5"
         inkscape:label="TONE"><tspan
           sodipodi:role="line"
           id="tspan2623-3"
           style="font-style:normal;font-variant:normal;font-weight:normal;font-stretch:normal;font-size:3.88056px;font-family:Questrial;-inkscape-font-specification:'Questrial, Normal';font-variant-ligatures:normal;font-variant-caps:normal;font-variant-numeric:normal;font-variant-east-asian:normal;fill:none;stroke:#000000;stroke-width:0.1;stroke-dasharray:none;stroke-opacity:1"
           x="7.8358111"
           y="49.966568"><tspan
             style="font-style:normal;font-variant:normal;font-weight:normal;font-stretch:normal;font-size:3.88056px;font-family:Questrial;-inkscape-font-specification:'Questrial, Normal';font-variant-ligatures:normal;font-variant-caps:normal;font-variant-numeric:normal;font-variant-east-asian:normal;fill:#4795cc;fill-opacity:1;stroke:none"
             id="tspan10942">t</tspan><tspan
             style="font-style:normal;font-variant:normal;font-weight:normal;font-stretch:normal;font-size:3.88056px;font-family:Questrial;-inkscape-font-specification:'Questrial, Normal';font-variant-ligatures:normal;font-variant-caps:normal;font-variant-numeric:normal;font-variant-east-asian:normal;fill:#242424;fill-opacity:1;stroke:none;stroke-opacity:1"
             id="tspan10934">one</tspan></tspan></text><text
         xml:space="preserve"
         style="font-style:normal;font-variant:normal;font-weight:normal;font-stretch:normal;font-size:3.88056px;line-height:1.25;font-family:Questrial;-inkscape-font-specification:'Questrial, Normal';font-variant-ligatures:normal;font-variant-caps:normal;font-variant-numeric:normal;font-variant-east-asian:normal;letter-spacing:0.185208px;fill:none;fill-opacity:1;stroke:#000000;stroke-width:0.1;stroke-dasharray:none;stroke-opacity:1"
         x="5.2757049"
         y="23.963438"
         id="text2625-3-5"
         inkscape:label="VOLUME"><tspan
           sodipodi:role="line"
           id="tspan2623-6-6"
           style="font-style:normal;font-variant:normal;font-weight:normal;font-stretch:normal;font-size:3.88056px;font-family:Questrial;-inkscape-font-specification:'Questrial, Normal';font-variant-ligatures:normal;font-variant-caps:normal;font-variant-numeric:normal;font-variant-east-asian:normal;fill:none;stroke:#000000;stroke-width:0.1;stroke-dasharray:none;stroke-opacity:1"
           x="5.2757049"
           y="23.963438"><tspan
             style="font-style:normal;font-variant:normal;font-weight:normal;font-stretch:normal;font-size:3.88056px;font-family:Questrial;-inkscape-font-specification:'Questrial, Normal';font-variant-ligatures:normal;font-variant-caps:normal;font-variant-numeric:normal;font-variant-east-asian:normal;fill:#4795cc;fill-opacity:1;stroke:none"
             id="tspan10946">v</tspan><tspan
             style="font-style:normal;font-variant:normal;font-weight:normal;font-stretch:normal;font-size:3.88056px;font-family:Questrial;-inkscape-font-specification:'Questrial, Normal';font-variant-ligatures:normal;font-variant-caps:normal;font-variant-numeric:normal;font-variant-east-asian:normal;fill:#242424;fill-opacity:1;stroke:none"
             id="tspan10940">olume</tspan></tspan></text><text
         xml:space="preserve"
         style="font-style:normal;font-variant:normal;font-weight:normal;font-stretch:normal;font-size:3.88056px;line-height:1.25;font-family:Questrial;-inkscape-font-specification:'Questrial, Normal';font-variant-ligatures:normal;font-variant-caps:normal;font-variant-numeric:normal;font-variant-east-asian:normal;letter-spacing:0.185208px;fill:none;fill-opacity:1;stroke:#000000;stroke-width:0.1;stroke-dasharray:none;stroke-opacity:1"
         x="52.71669"
         y="49.965775"
         id="text2625-1"
         inkscape:label="CLIP"><tspan
           sodipodi:role="line"
           id="tspan2623-4"
           style="font-style:normal;font-variant:normal;font-weight:normal;font-stretch:normal;font-size:3.88056px;font-family:Questrial;-inkscape-font-specification:'Questrial, Normal';font-variant-ligatures:normal;font-variant-caps:normal;font-variant-numeric:normal;font-variant-east-asian:normal;fill:none;stroke:#000000;stroke-width:0.1;stroke-dasharray:none;stroke-opacity:1"
           x="52.71669"
           y="49.965775"><tspan
             style="font-style:normal;font-variant:normal;font-weight:normal;font-stretch:normal;font-size:3.88056px;font-family:Questrial;-inkscape-font-specification:'Questrial, Normal';font-variant-ligatures:normal;font-variant-caps:normal;font-variant-numeric:normal;font-variant-east-asian:normal;fill:#4795cc;fill-opacity:1;stroke:none"
             id="tspan10139">c</tspan><tspan
             style="font-style:normal;font-variant:normal;font-weight:normal;font-stretch:normal;font-size:3.88056px;font-family:Questrial;-inkscape-font-specification:'Questrial, Normal';font-variant-ligatures:normal;font-variant-caps:normal;font-variant-numeric:normal;font-variant-east-asian:normal;fill:#242424;fill-opacity:1;stroke:none;stroke-opacity:1"
             id="tspan10137">lip</tspan></tspan></text><text
         xml:space="preserve"
         style="font-style:normal;font-variant:normal;font-weight:normal;font-stretch:normal;font-size:3.88056px;line-height:1.25;font-family:Questrial;-inkscape-font-specification:'Questrial, Normal';font-variant-ligatures:normal;font-variant-caps:normal;font-variant-numeric:normal;font-variant-east-asian:normal;letter-spacing:0.185208px;fill:none;fill-opacity:1;stroke:#000000;stroke-width:0.1;stroke-dasharray:none;stroke-opacity:1"
         x="51.384251"
         y="23.963438"
         id="text2625-3"
         inkscape:label="DRIVE"><tspan
           sodipodi:role="line"
           id="tspan2623-6"
           style="font-style:normal;font-variant:normal;font-weight:normal;font-stretch:normal;font-size:3.88056px;font-family:Questrial;-inkscape-font-specification:'Questrial, Normal';font-variant-ligatures:normal;font-variant-caps:normal;font-variant-numeric:normal;font-variant-east-asian:normal;fill:none;stroke:#000000;stroke-width:0.1;stroke-dasharray:none;stroke-opacity:1"
           x="51.384251"
           y="23.963438"><tspan
             style="font-style:normal;font-variant:normal;font-weight:normal;font-stretch:normal;font-size:3.88056px;font-family:Questrial;-inkscape-font-specification:'Questrial, Normal';font-variant-ligatures:normal;font-variant-caps:normal;font-variant-numeric:normal;font-variant-east-asian:normal;fill:#242424;fill-opacity:1;stroke:none"
             id="tspan10938"><tspan
   style="fill:#4593ce;fill-opacity:1"
   id="tspan1">d</tspan>rive</tspan></tspan></text></g><g
       id="g9340"
       inkscape:label="CONTROLS HOLES"
       style="display:inline;fill:#ffffff;fill-opacity:1;stroke:none"
       transform="translate(0,-3)"><path
         id="path10508-7-7"
         style="display:inline;fill:#ffffff;fill-opacity:1;stroke:none;stroke-width:0.0999997;stroke-dasharray:none;stroke-opacity:1"
         d="M 40,111.99999 A 6.0000005,6.0000005 0 0 1 34,118 6.0000005,6.0000005 0 0 1 28,111.99999 6.0000005,6.0000005 0 0 1 34,106 a 6.0000005,6.0000005 0 0 1 6,5.99999 z"
         inkscape:label="FS" /><path
         id="path10508-7-7-9"
         style="display:inline;fill:#ffffff;fill-opacity:1;stroke:none;stroke-width:0.0666666;stroke-dasharray:none;stroke-opacity:1"
         d="M 16,111.99999 A 4.0000003,4.0000003 0 0 1 12,116 4.0000003,4.0000003 0 0 1 8,111.99999 4.0000003,4.0000003 0 0 1 12,108 a 4.0000003,4.0000003 0 0 1 4,3.99999 z"
         inkscape:label="LED" /><path
         id="path10508-7-7-9-9"
         style="display:inline;fill:#ffffff;fill-opacity:1;stroke:none;stroke-width:0.0666666;stroke-dasharray:none;stroke-opacity:1"
         d="M 16,13.99999 A 4.0000003,4.0000003 0 0 1 12,18 4.0000003,4.0000003 0 0 1 8,13.99999 4.0000003,4.0000003 0 0 1 12,10 a 4.0000003,4.0000003 0 0 1 4,3.99999 z"
         inkscape:label="VOLUME" /><path
         id="path10508-7-7-9-8"
         style="display:inline;fill:#ffffff;fill-opacity:1;stroke:none;stroke-width:0.0666666;stroke-dasharray:none;stroke-opacity:1"
         d="M 60,13.99999 A 4.0000003,4.0000003 0 0 1 56,18 4.0000003,4.0000003 0 0 1 52,13.99999 4.0000003,4.0000003 0 0 1 56,10 a 4.0000003,4.0000003 0 0 1 4,3.99999 z"
         inkscape:label="DRIVE" /><path
         id="path10508-7-7-9-1"
         style="display:inline;fill:#ffffff;fill-opacity:1;stroke:none;stroke-width:0.0666666;stroke-dasharray:none;stroke-opacity:1"
         d="m 16,39.999989 a 4.0000003,4.0000003 0 0 1 -4,4.00001 4.0000003,4.0000003 0 0 1 -4,-4.00001 4.0000003,4.0000003 0 0 1 4,-3.99999 4.0000003,4.0000003 0 0 1 4,3.99999 z"
         inkscape:label="TONE" /><path
         id="rect1050"
         style="fill:#4f4f4f;fill-opacity:1;stroke:none;stroke-width:0.1;stroke-dasharray:none"
         d="m 55.825333,44.503441 v 3.408588 h -2.41484 v 0 h -0.361734 v 1.117712 h 0.361734 v -0.765328 h 2.41484 v 0.765328 h 0.351917 v -0.765328 h 2.412256 v 0.765328 h 0.361736 v -1.117712 h -0.361736 v 0 H 56.17725 v -3.408588 z"
         sodipodi:nodetypes="ccccccccccccccccccccc"
         inkscape:label="SELECTOR" /><path
         id="path10508-7-7-9-22"
         style="display:inline;fill:#ffffff;fill-opacity:1;stroke:none;stroke-width:0.0666666;stroke-dasharray:none;stroke-opacity:1"
         d="M 60,36.99999 A 4.0000003,4.0000003 0 0 1 56,41 4.0000003,4.0000003 0 0 1 52,36.99999 4.0000003,4.0000003 0 0 1 56,33 a 4.0000003,4.0000003 0 0 1 4,3.99999 z"
         inkscape:label="CLIP"
         transform="translate(0,3)" /></g><g
       id="g4"
       transform="translate(0,-0.52916663)"
       inkscape:label="LABELS"><path
         id="circle817-6"
         style="display:inline;vector-effect:none;fill:#505050;fill-opacity:1;stroke:none;stroke-width:0.0547981;stroke-linecap:butt;stroke-linejoin:miter;stroke-miterlimit:4;stroke-dasharray:none;stroke-dashoffset:0;stroke-opacity:1"
         d="m 30.26645,1.594771 c -0.497454,0 -0.915336,0.4178824 -0.915336,0.9153363 0,0.497454 0.417882,0.9153366 0.915336,0.9153366 0.462736,-3.96e-4 0.864506,-0.3599204 0.910169,-0.8203983 h 2.080347 c 0.04569,0.4607606 0.453719,0.81182 0.916739,0.8118363 0.173941,-3.11e-4 0.344116,-0.051352 0.489894,-0.1462443 V 3.0387573 c -0.13321,0.1235861 -0.308183,0.1925136 -0.489894,0.1927531 -0.398544,-8e-7 -0.721401,-0.3228589 -0.721403,-0.7214031 -1.1e-5,-0.398551 0.322851,-0.721919 0.721403,-0.72192 0.181756,3.11e-4 0.356736,0.069556 0.489894,0.19327 V 1.748027 C 34.517739,1.653397 34.34757,1.603405 34.173705,1.603333 33.711028,1.6038 33.303664,1.9518267 33.257999,2.4122467 H 31.177136 C 31.131456,1.9515717 30.729385,1.5949014 30.26645,1.594771 Z m 7.461045,0.00429 c -0.462737,3.96e-4 -0.860226,0.3527122 -0.905889,0.8131904 H 34.640714 C 34.597864,2.1799389 34.430609,2.055567 34.194377,2.0555115 c -0.270566,-1.48e-5 -0.475291,0.1840391 -0.475276,0.4546051 -1.5e-5,0.2705663 0.20471,0.4546206 0.475276,0.4546058 0.236231,-5.55e-5 0.403487,-0.1273594 0.446337,-0.3596721 h 2.180376 c 0.04568,0.460674 0.453806,0.8159905 0.916739,0.8161219 0.497454,0 0.911056,-0.4136016 0.911056,-0.9110556 0,-0.4974535 -0.423936,-0.9110547 -0.92139,-0.9110556 z m -7.461044,0.1745144 c 0.39857,1.25e-4 0.73618,0.3379663 0.736019,0.7365363 -1.25e-4,0.3983681 -0.337651,0.7358944 -0.736019,0.7360194 -0.39857,1.599e-4 -0.73641,-0.3374498 -0.736535,-0.7360194 -1.61e-4,-0.3987715 0.337763,-0.7366963 0.736535,-0.7365363 z m 7.471379,0.014616 c 0.398772,-1.606e-4 0.722081,0.3231481 0.72192,0.72192 -1.25e-4,0.39857 -0.32335,0.7215636 -0.72192,0.7214031 -0.398368,-1.25e-4 -0.721278,-0.323035 -0.721403,-0.7214031 -1.61e-4,-0.39857 0.322833,-0.721795 0.721403,-0.72192 z M 30.173433,2.0822266 V 2.411922 h -0.331246 v 0.194303 h 0.331246 v 0.3312462 h 0.192753 V 2.6062253 h 0.329696 V 2.4119223 H 30.366186 V 2.0822269 Z m 7.146851,0.3303439 V 2.5971469 H 38.14504 V 2.4125705 Z"
         inkscape:label="Polarity"
         sodipodi:nodetypes="csccccccccccccccccccccccccsccccccccccccccccccccccccccccc" /><text
         xml:space="preserve"
         style="font-style:normal;font-variant:normal;font-weight:normal;font-stretch:normal;font-size:2.46944px;line-height:1.25;font-family:Questrial;-inkscape-font-specification:'Questrial, Normal';font-variant-ligatures:normal;font-variant-caps:normal;font-variant-numeric:normal;font-variant-east-asian:normal;letter-spacing:0.185208px;fill:#4f4f4f;fill-opacity:1;stroke:#000000;stroke-width:0.1;stroke-dasharray:none;stroke-opacity:1"
         x="32.183018"
         y="6.4173522"
         id="text2625-3-9"
         inkscape:label="9V"><tspan
           sodipodi:role="line"
           id="tspan2623-6-2"
           style="font-style:normal;font-variant:normal;font-weight:normal;font-stretch:normal;font-size:2.46944px;font-family:Questrial;-inkscape-font-specification:'Questrial, Normal';font-variant-ligatures:normal;font-variant-caps:normal;font-variant-numeric:normal;font-variant-east-asian:normal;fill:#4f4f4f;fill-opacity:1;stroke:none;stroke-width:0.1;stroke-dasharray:none;stroke-opacity:1"
           x="32.183018"
           y="6.4173522">9V</tspan></text><text
         xml:space="preserve"
         style="font-style:normal;font-variant:normal;font-weight:normal;font-stretch:normal;font-size:2.46944px;line-height:1.25;font-family:Questrial;-inkscape-font-specification:'Questrial, Normal';font-variant-ligatures:normal;font-variant-caps:normal;font-variant-numeric:normal;font-variant-east-asian:normal;letter-spacing:0.185208px;fill:#4f4f4f;fill-opacity:1;stroke:#000000;stroke-width:0.1;stroke-dasharray:none;stroke-opacity:1"
         x="39.964504"
         y="3.3274944"
         id="text2625-3-9-7"
         inkscape:label="IN"><tspan
           sodipodi:role="line"
           id="tspan2623-6-2-5"
           style="font-style:normal;font-variant:normal;font-weight:normal;font-stretch:normal;font-size:2.46944px;font-family:Questrial;-inkscape-font-specification:'Questrial, Normal';font-variant-ligatures:normal;font-variant-caps:normal;font-variant-numeric:normal;font-variant-east-asian:normal;fill:#4f4f4f;fill-opacity:1;stroke:none;stroke-width:0.1;stroke-dasharray:none;stroke-opacity:1"
           x="39.964504"
           y="3.3274944">IN</tspan></text><text
         xml:space="preserve"
         style="font-style:normal;font-variant:normal;font-weight:normal;font-stretch:normal;font-size:2.46944px;line-height:1.25;font-family:Questrial;-inkscape-font-specification:'Questrial, Normal';font-variant-ligatures:normal;font-variant-caps:normal;font-variant-numeric:normal;font-variant-east-asian:normal;letter-spacing:0.185208px;fill:#4f4f4f;fill-opacity:1;stroke:#000000;stroke-width:0.1;stroke-dasharray:none;stroke-opacity:1"
         x="21.648521"
         y="3.3274944"
         id="text2625-3-9-7-1"
         inkscape:label="OUT"><tspan
           sodipodi:role="line"
           id="tspan2623-6-2-5-2"
           style="font-style:normal;font-variant:normal;font-weight:normal;font-stretch:normal;font-size:2.46944px;font-family:Questrial;-inkscape-font-specification:'Questrial, Normal';font-variant-ligatures:normal;font-variant-caps:normal;font-variant-numeric:normal;font-variant-east-asian:normal;fill:#4f4f4f;fill-opacity:1;stroke:none;stroke-width:0.1;stroke-dasharray:none;stroke-opacity:1"
           x="21.648521"
           y="3.3274944">OUT</tspan></text></g></g></svg>
